<?xml version="1.0" encoding="UTF-8"?>
<svg id="Layer_2" xmlns="http://www.w3.org/2000/svg" viewBox="0 0 469.48 327.53">
  <defs>
    <style>
      .cls-1 {
        fill: #e32528;
      }

      .cls-2 {
        fill: #2fa9dd;
      }
    </style>
  </defs>
  <g id="Layer_1-2" data-name="Layer_1">
    <g>
      <path class="cls-1" d="M389.39,256.82c1.86,14.33.14,27.57-8.79,38.88-7.35,9.3-17.33,14.7-28.92,17.23-16.86,3.68-33.65,2.5-50.43-.45-17.02-3-33.46-8.16-49.48-14.41-18.89-7.38-37.15-16.23-54.81-26.29-20.72-11.8-40.58-24.92-59.39-39.54-16.91-13.14-33.07-27.17-48.13-42.46-12.75-12.94-24.8-26.45-35.68-40.98-12.99-17.34-24.31-35.7-32-56.08-5.13-13.59-8.17-27.68-6.28-42.2,1.79-13.74,8.59-24.71,20.83-31.94,10.27-6.07,21.43-8.48,33.23-8.85,13.21-.42,26.29.5,39.2,3.27,15.06,3.23,29.79,7.64,44.11,13.31,14.78,5.84,29.26,12.37,43.27,19.9,15.45,8.3,30.57,17.14,44.78,27.46-7.77-3.98-14.92-9.01-22.61-13.16-15.35-8.28-30.93-16.06-47.23-22.29-13.92-5.32-28.08-9.78-42.81-12.55-10.98-2.06-21.95-3.2-33.05-2.41-12.21.87-23.7,3.94-32.84,12.83-6.26,6.09-9.7,13.58-10.49,22.19-1.21,13.11,1.62,25.55,6.5,37.69,10.96,27.24,28.43,50.13,47.79,71.7,13.27,14.78,27.8,28.34,43.07,41.03,25.44,21.14,52.69,39.66,81.91,55.18,19.46,10.33,39.68,19.03,60.85,25.18,13.86,4.03,28.02,7.04,42.55,7.39,13.65.33,27.01-1.13,38.78-8.94,9.44-6.26,14.13-15.39,15.27-26.52.13-1.27-.15-2.63.79-4.19Z"/>
      <path class="cls-2" d="M206.3,170.12c0-22.2.03-44.4-.06-66.6,0-2.48.56-3.42,3.22-3.39,10.61.12,21.22.13,31.82-.06,3.32-.06,3.02,1.83,3.01,3.98-.06,15.74-.01,31.47-.19,47.21-.04,3.42.84,4.6,4.5,4.36,8.26-.56,16.27-1.57,22.85-7.22,6.8-5.84,9.07-13.81,10.13-22.27.94-7.52,1.04-15.09.8-22.64-.08-2.63.87-3.33,3.35-3.31,10.61.08,21.22.08,31.83-.07,2.67-.04,3.57.69,3.51,3.48-.31,13.86-.23,27.72-4.2,41.22-3.56,12.11-10.5,21.76-20.71,29.03-2.49,1.77-3.31,2.91-1.42,5.92,12.32,19.65,24.37,39.47,36.6,59.18,1.22,1.96.94,3.96,1.09,5.97.12,1.51-1.03,1.74-2.22,1.74-12.56-.02-25.12-.07-37.68-.06-2.04,0-2.65-1.53-3.41-2.86-9.72-17.07-19.45-34.13-29.04-51.28-1.07-1.91-2.16-2.62-4.25-2.36-2.78.34-5.59.68-8.37.62-2.94-.06-3.32,1.36-3.3,3.84.11,15.98-.03,31.96.22,47.94.06,3.6-1.32,4.29-4.39,4.23-6.83-.14-13.67.12-20.48-.21-5.08-.25-8.67-3.96-12.61-6.65-1.13-.77-.55-2.53-.56-3.84-.02-21.96-.02-43.92-.02-65.87Z"/>
      <path class="cls-2" d="M348.19,100.21c4.88,0,9.76.12,14.63-.05,2.48-.08,3.73.93,4.63,3.13,8.46,20.68,16.98,41.34,25.5,62,1.76,4.27,3.55,8.52,5.44,12.73.38.85-.29,2.56,1.5,2.42,1.47-.12,2.24-1.21,2.76-2.53,1.54-3.94,3.11-7.87,4.7-11.79,6.15-15.18,12.34-30.34,18.47-45.52,2.32-5.74,4.59-11.5,6.73-17.31.83-2.25,2.03-3.22,4.53-3.19,9.75.11,19.51.09,29.26-.05,2.48-.04,3.12.93,3.14,3.18.01,2.01-.4,3.87-1.18,5.67-9.04,20.69-18.09,41.38-27.14,62.06-10.71,24.47-21.46,48.93-32.11,73.44-.72,1.66-1.62,2.29-3.28,2.11-.12-.01-.24,0-.37,0-4.14-.01-8.84,1.19-12.28-.38-3.54-1.61-3.86-6.92-5.51-10.63-10.99-24.75-21.86-49.55-32.78-74.33-7.88-17.9-15.77-35.8-23.66-53.69-.5-1.13-.82-2.26-.88-3.51-.11-2.58.42-4.05,3.63-3.82,4.73.33,9.51.08,14.26.08,0,0,0-.01,0-.02Z"/>
      <path class="cls-2" d="M176.96,144.89c-5,0-10-.03-14.99.02-1.46.01-2.55-.09-2.87-1.92-1.25-7.09-6.56-10.1-12.76-11.21-7.53-1.35-15.03-.87-21.71,3.72-4.34,2.97-6.19,6.96-5.53,12.19.6,4.8,3.98,7.01,7.96,8.6,7.57,3.02,15.68,3.28,23.62,4.36,9.53,1.29,19.01,2.57,27.95,6.57,11.38,5.09,17.71,13.83,19.95,25.86,2.08,11.18.54,21.77-5.04,31.72-2.44,4.35-3,4.64-7.03,1.76-7.7-5.5-15.21-11.26-22.81-16.89-1.42-1.05-1.9-2.01-1.11-3.96,1.66-4.09.35-7.53-3.29-10.18-4.61-3.35-10.05-4.18-15.49-4.81-2.21-.26-3.9-1.14-5.46-2.57-18.54-17.03-35.48-35.5-50.32-55.88-2.06-2.83-1.64-5.26-.14-8.03,6.29-11.66,16.16-18.98,28.54-22.87,18.25-5.75,36.23-5.06,53.59,3.53,9.7,4.8,17.05,12,21.39,21.99,2.19,5.04,3.13,10.42,3.43,15.93.11,2.04-1.01,2.13-2.49,2.13-5.12-.02-10.24,0-15.36,0,0,0,0-.01,0-.02Z"/>
      <path class="cls-2" d="M74.37.39c-10.06.27-19.87,1.66-29.44,4.87C18.3,14.17,5.91,36.02,7.01,62.63c.81,19.61,7.2,37.65,16.01,54.93,13.19,25.85,30.98,48.34,50.89,69.27,17.53,18.43,36.59,35.14,56.73,50.63,29.51,22.7,60.73,42.7,94.5,58.51,22.4,10.48,45.54,19.01,69.85,23.82,20.33,4.01,40.83,5.76,61.23.46,23.2-6.03,37.8-20.06,41.8-44.38.25-1.53,1.06-2.59,1.5-3.9.28-.85.28-1.75-.43-2.36-.27-.24-.95-.24-1.32-.08-.97.43-.88,1.35-.72,2.2,2.58,13.67-3.73,29.9-15.27,39.61-10.62,8.93-23.15,13.01-36.64,14.78-7.38.97-14.86,1.84-22.21,1.2-8.69-.77-17.41-1.47-26.04-3.08-40.16-7.52-76.98-23.55-112.18-43.76-15.37-8.83-30.17-18.54-44.41-29.1-3.72-2.76-8.18-2.03-12.29-2.68-16.04-2.55-30.07-8.62-39.78-22.25-3.62-5.08-6.15-10.96-6.23-17.23-.08-6.52-3.51-10.59-7.75-14.78-19.78-19.51-37.09-41.05-51.29-64.92-9.08-15.27-16.45-31.41-20.34-48.9-3.53-15.87-4.19-31.64,2.25-47.01,4.75-11.33,13.02-19.51,23.83-25.01C42.75,1.44,57.92-.26,73.43.03c.32,0,.63.23.94.36Z"/>
    </g>
  </g>
</svg>