<?xml version="1.0" standalone="no"?>
<svg xmlns="http://www.w3.org/2000/svg" width="1024" height="1331" viewBox="0 0 1000 1300"><defs><clipPath id="clip-path-dot-color"><rect x="185" y="497" width="17" height="17" transform="rotate(0,193.5,505.5)"/><rect x="185" y="514" width="17" height="17" transform="rotate(0,193.5,522.5)"/><rect x="185" y="582" width="17" height="17" transform="rotate(0,193.5,590.5)"/><rect x="185" y="599" width="17" height="17" transform="rotate(0,193.5,607.5)"/><rect x="185" y="701" width="17" height="17" transform="rotate(0,193.5,709.5)"/><rect x="185" y="735" width="17" height="17" transform="rotate(0,193.5,743.5)"/><rect x="185" y="752" width="17" height="17" transform="rotate(0,193.5,760.5)"/><rect x="185" y="769" width="17" height="17" transform="rotate(0,193.5,777.5)"/><rect x="185" y="803" width="17" height="17" transform="rotate(0,193.5,811.5)"/><rect x="185" y="820" width="17" height="17" transform="rotate(0,193.5,828.5)"/><rect x="202" y="480" width="17" height="17" transform="rotate(0,210.5,488.5)"/><rect x="202" y="548" width="17" height="17" transform="rotate(0,210.5,556.5)"/><rect x="202" y="565" width="17" height="17" transform="rotate(0,210.5,573.5)"/><rect x="202" y="582" width="17" height="17" transform="rotate(0,210.5,590.5)"/><rect x="202" y="599" width="17" height="17" transform="rotate(0,210.5,607.5)"/><rect x="202" y="633" width="17" height="17" transform="rotate(0,210.5,641.5)"/><rect x="202" y="684" width="17" height="17" transform="rotate(0,210.5,692.5)"/><rect x="202" y="735" width="17" height="17" transform="rotate(0,210.5,743.5)"/><rect x="202" y="769" width="17" height="17" transform="rotate(0,210.5,777.5)"/><rect x="202" y="786" width="17" height="17" transform="rotate(0,210.5,794.5)"/><rect x="202" y="803" width="17" height="17" transform="rotate(0,210.5,811.5)"/><rect x="219" y="480" width="17" height="17" transform="rotate(0,227.5,488.5)"/><rect x="219" y="514" width="17" height="17" transform="rotate(0,227.5,522.5)"/><rect x="219" y="582" width="17" height="17" transform="rotate(0,227.5,590.5)"/><rect x="219" y="599" width="17" height="17" transform="rotate(0,227.5,607.5)"/><rect x="219" y="616" width="17" height="17" transform="rotate(0,227.5,624.5)"/><rect x="219" y="633" width="17" height="17" transform="rotate(0,227.5,641.5)"/><rect x="219" y="718" width="17" height="17" transform="rotate(0,227.5,726.5)"/><rect x="219" y="735" width="17" height="17" transform="rotate(0,227.5,743.5)"/><rect x="219" y="769" width="17" height="17" transform="rotate(0,227.5,777.5)"/><rect x="219" y="786" width="17" height="17" transform="rotate(0,227.5,794.5)"/><rect x="236" y="514" width="17" height="17" transform="rotate(0,244.5,522.5)"/><rect x="236" y="531" width="17" height="17" transform="rotate(0,244.5,539.5)"/><rect x="236" y="565" width="17" height="17" transform="rotate(0,244.5,573.5)"/><rect x="236" y="582" width="17" height="17" transform="rotate(0,244.5,590.5)"/><rect x="236" y="599" width="17" height="17" transform="rotate(0,244.5,607.5)"/><rect x="236" y="616" width="17" height="17" transform="rotate(0,244.5,624.5)"/><rect x="236" y="633" width="17" height="17" transform="rotate(0,244.5,641.5)"/><rect x="236" y="667" width="17" height="17" transform="rotate(0,244.5,675.5)"/><rect x="236" y="701" width="17" height="17" transform="rotate(0,244.5,709.5)"/><rect x="236" y="769" width="17" height="17" transform="rotate(0,244.5,777.5)"/><rect x="253" y="497" width="17" height="17" transform="rotate(0,261.5,505.5)"/><rect x="253" y="514" width="17" height="17" transform="rotate(0,261.5,522.5)"/><rect x="253" y="548" width="17" height="17" transform="rotate(0,261.5,556.5)"/><rect x="253" y="565" width="17" height="17" transform="rotate(0,261.5,573.5)"/><rect x="253" y="582" width="17" height="17" transform="rotate(0,261.5,590.5)"/><rect x="253" y="633" width="17" height="17" transform="rotate(0,261.5,641.5)"/><rect x="253" y="667" width="17" height="17" transform="rotate(0,261.5,675.5)"/><rect x="253" y="735" width="17" height="17" transform="rotate(0,261.5,743.5)"/><rect x="253" y="752" width="17" height="17" transform="rotate(0,261.5,760.5)"/><rect x="270" y="514" width="17" height="17" transform="rotate(0,278.5,522.5)"/><rect x="270" y="531" width="17" height="17" transform="rotate(0,278.5,539.5)"/><rect x="270" y="599" width="17" height="17" transform="rotate(0,278.5,607.5)"/><rect x="270" y="633" width="17" height="17" transform="rotate(0,278.5,641.5)"/><rect x="270" y="667" width="17" height="17" transform="rotate(0,278.5,675.5)"/><rect x="270" y="701" width="17" height="17" transform="rotate(0,278.5,709.5)"/><rect x="270" y="718" width="17" height="17" transform="rotate(0,278.5,726.5)"/><rect x="270" y="752" width="17" height="17" transform="rotate(0,278.5,760.5)"/><rect x="270" y="786" width="17" height="17" transform="rotate(0,278.5,794.5)"/><rect x="270" y="820" width="17" height="17" transform="rotate(0,278.5,828.5)"/><rect x="287" y="480" width="17" height="17" transform="rotate(0,295.5,488.5)"/><rect x="287" y="514" width="17" height="17" transform="rotate(0,295.5,522.5)"/><rect x="287" y="548" width="17" height="17" transform="rotate(0,295.5,556.5)"/><rect x="287" y="582" width="17" height="17" transform="rotate(0,295.5,590.5)"/><rect x="287" y="616" width="17" height="17" transform="rotate(0,295.5,624.5)"/><rect x="287" y="650" width="17" height="17" transform="rotate(0,295.5,658.5)"/><rect x="287" y="684" width="17" height="17" transform="rotate(0,295.5,692.5)"/><rect x="287" y="718" width="17" height="17" transform="rotate(0,295.5,726.5)"/><rect x="287" y="752" width="17" height="17" transform="rotate(0,295.5,760.5)"/><rect x="287" y="786" width="17" height="17" transform="rotate(0,295.5,794.5)"/><rect x="287" y="820" width="17" height="17" transform="rotate(0,295.5,828.5)"/><rect x="304" y="531" width="17" height="17" transform="rotate(0,312.5,539.5)"/><rect x="304" y="599" width="17" height="17" transform="rotate(0,312.5,607.5)"/><rect x="304" y="667" width="17" height="17" transform="rotate(0,312.5,675.5)"/><rect x="304" y="684" width="17" height="17" transform="rotate(0,312.5,692.5)"/><rect x="304" y="701" width="17" height="17" transform="rotate(0,312.5,709.5)"/><rect x="304" y="735" width="17" height="17" transform="rotate(0,312.5,743.5)"/><rect x="304" y="752" width="17" height="17" transform="rotate(0,312.5,760.5)"/><rect x="304" y="803" width="17" height="17" transform="rotate(0,312.5,811.5)"/><rect x="321" y="361" width="17" height="17" transform="rotate(0,329.5,369.5)"/><rect x="321" y="378" width="17" height="17" transform="rotate(0,329.5,386.5)"/><rect x="321" y="395" width="17" height="17" transform="rotate(0,329.5,403.5)"/><rect x="321" y="429" width="17" height="17" transform="rotate(0,329.5,437.5)"/><rect x="321" y="446" width="17" height="17" transform="rotate(0,329.5,454.5)"/><rect x="321" y="497" width="17" height="17" transform="rotate(0,329.5,505.5)"/><rect x="321" y="514" width="17" height="17" transform="rotate(0,329.5,522.5)"/><rect x="321" y="582" width="17" height="17" transform="rotate(0,329.5,590.5)"/><rect x="321" y="616" width="17" height="17" transform="rotate(0,329.5,624.5)"/><rect x="321" y="650" width="17" height="17" transform="rotate(0,329.5,658.5)"/><rect x="321" y="667" width="17" height="17" transform="rotate(0,329.5,675.5)"/><rect x="321" y="701" width="17" height="17" transform="rotate(0,329.5,709.5)"/><rect x="321" y="735" width="17" height="17" transform="rotate(0,329.5,743.5)"/><rect x="321" y="820" width="17" height="17" transform="rotate(0,329.5,828.5)"/><rect x="321" y="922" width="17" height="17" transform="rotate(0,329.5,930.5)"/><rect x="321" y="939" width="17" height="17" transform="rotate(0,329.5,947.5)"/><rect x="338" y="361" width="17" height="17" transform="rotate(0,346.5,369.5)"/><rect x="338" y="429" width="17" height="17" transform="rotate(0,346.5,437.5)"/><rect x="338" y="497" width="17" height="17" transform="rotate(0,346.5,505.5)"/><rect x="338" y="531" width="17" height="17" transform="rotate(0,346.5,539.5)"/><rect x="338" y="548" width="17" height="17" transform="rotate(0,346.5,556.5)"/><rect x="338" y="565" width="17" height="17" transform="rotate(0,346.5,573.5)"/><rect x="338" y="616" width="17" height="17" transform="rotate(0,346.5,624.5)"/><rect x="338" y="684" width="17" height="17" transform="rotate(0,346.5,692.5)"/><rect x="338" y="701" width="17" height="17" transform="rotate(0,346.5,709.5)"/><rect x="338" y="718" width="17" height="17" transform="rotate(0,346.5,726.5)"/><rect x="338" y="752" width="17" height="17" transform="rotate(0,346.5,760.5)"/><rect x="338" y="820" width="17" height="17" transform="rotate(0,346.5,828.5)"/><rect x="338" y="871" width="17" height="17" transform="rotate(0,346.5,879.5)"/><rect x="338" y="905" width="17" height="17" transform="rotate(0,346.5,913.5)"/><rect x="355" y="361" width="17" height="17" transform="rotate(0,363.5,369.5)"/><rect x="355" y="378" width="17" height="17" transform="rotate(0,363.5,386.5)"/><rect x="355" y="395" width="17" height="17" transform="rotate(0,363.5,403.5)"/><rect x="355" y="412" width="17" height="17" transform="rotate(0,363.5,420.5)"/><rect x="355" y="446" width="17" height="17" transform="rotate(0,363.5,454.5)"/><rect x="355" y="463" width="17" height="17" transform="rotate(0,363.5,471.5)"/><rect x="355" y="514" width="17" height="17" transform="rotate(0,363.5,522.5)"/><rect x="355" y="531" width="17" height="17" transform="rotate(0,363.5,539.5)"/><rect x="355" y="565" width="17" height="17" transform="rotate(0,363.5,573.5)"/><rect x="355" y="582" width="17" height="17" transform="rotate(0,363.5,590.5)"/><rect x="355" y="616" width="17" height="17" transform="rotate(0,363.5,624.5)"/><rect x="355" y="684" width="17" height="17" transform="rotate(0,363.5,692.5)"/><rect x="355" y="701" width="17" height="17" transform="rotate(0,363.5,709.5)"/><rect x="355" y="718" width="17" height="17" transform="rotate(0,363.5,726.5)"/><rect x="355" y="803" width="17" height="17" transform="rotate(0,363.5,811.5)"/><rect x="355" y="820" width="17" height="17" transform="rotate(0,363.5,828.5)"/><rect x="355" y="837" width="17" height="17" transform="rotate(0,363.5,845.5)"/><rect x="355" y="871" width="17" height="17" transform="rotate(0,363.5,879.5)"/><rect x="355" y="956" width="17" height="17" transform="rotate(0,363.5,964.5)"/><rect x="372" y="344" width="17" height="17" transform="rotate(0,380.5,352.5)"/><rect x="372" y="361" width="17" height="17" transform="rotate(0,380.5,369.5)"/><rect x="372" y="395" width="17" height="17" transform="rotate(0,380.5,403.5)"/><rect x="372" y="412" width="17" height="17" transform="rotate(0,380.5,420.5)"/><rect x="372" y="429" width="17" height="17" transform="rotate(0,380.5,437.5)"/><rect x="372" y="463" width="17" height="17" transform="rotate(0,380.5,471.5)"/><rect x="372" y="480" width="17" height="17" transform="rotate(0,380.5,488.5)"/><rect x="372" y="497" width="17" height="17" transform="rotate(0,380.5,505.5)"/><rect x="372" y="514" width="17" height="17" transform="rotate(0,380.5,522.5)"/><rect x="372" y="684" width="17" height="17" transform="rotate(0,380.5,692.5)"/><rect x="372" y="701" width="17" height="17" transform="rotate(0,380.5,709.5)"/><rect x="372" y="786" width="17" height="17" transform="rotate(0,380.5,794.5)"/><rect x="372" y="871" width="17" height="17" transform="rotate(0,380.5,879.5)"/><rect x="372" y="888" width="17" height="17" transform="rotate(0,380.5,896.5)"/><rect x="372" y="922" width="17" height="17" transform="rotate(0,380.5,930.5)"/><rect x="372" y="956" width="17" height="17" transform="rotate(0,380.5,964.5)"/><rect x="389" y="361" width="17" height="17" transform="rotate(0,397.5,369.5)"/><rect x="389" y="378" width="17" height="17" transform="rotate(0,397.5,386.5)"/><rect x="389" y="429" width="17" height="17" transform="rotate(0,397.5,437.5)"/><rect x="389" y="446" width="17" height="17" transform="rotate(0,397.5,454.5)"/><rect x="389" y="497" width="17" height="17" transform="rotate(0,397.5,505.5)"/><rect x="389" y="531" width="17" height="17" transform="rotate(0,397.5,539.5)"/><rect x="389" y="548" width="17" height="17" transform="rotate(0,397.5,556.5)"/><rect x="389" y="565" width="17" height="17" transform="rotate(0,397.5,573.5)"/><rect x="389" y="599" width="17" height="17" transform="rotate(0,397.5,607.5)"/><rect x="389" y="616" width="17" height="17" transform="rotate(0,397.5,624.5)"/><rect x="389" y="633" width="17" height="17" transform="rotate(0,397.5,641.5)"/><rect x="389" y="684" width="17" height="17" transform="rotate(0,397.5,692.5)"/><rect x="389" y="752" width="17" height="17" transform="rotate(0,397.5,760.5)"/><rect x="389" y="786" width="17" height="17" transform="rotate(0,397.5,794.5)"/><rect x="389" y="837" width="17" height="17" transform="rotate(0,397.5,845.5)"/><rect x="389" y="854" width="17" height="17" transform="rotate(0,397.5,862.5)"/><rect x="389" y="871" width="17" height="17" transform="rotate(0,397.5,879.5)"/><rect x="389" y="905" width="17" height="17" transform="rotate(0,397.5,913.5)"/><rect x="406" y="361" width="17" height="17" transform="rotate(0,414.5,369.5)"/><rect x="406" y="378" width="17" height="17" transform="rotate(0,414.5,386.5)"/><rect x="406" y="412" width="17" height="17" transform="rotate(0,414.5,420.5)"/><rect x="406" y="463" width="17" height="17" transform="rotate(0,414.5,471.5)"/><rect x="406" y="497" width="17" height="17" transform="rotate(0,414.5,505.5)"/><rect x="406" y="514" width="17" height="17" transform="rotate(0,414.5,522.5)"/><rect x="406" y="565" width="17" height="17" transform="rotate(0,414.5,573.5)"/><rect x="406" y="582" width="17" height="17" transform="rotate(0,414.5,590.5)"/><rect x="406" y="667" width="17" height="17" transform="rotate(0,414.5,675.5)"/><rect x="406" y="684" width="17" height="17" transform="rotate(0,414.5,692.5)"/><rect x="406" y="718" width="17" height="17" transform="rotate(0,414.5,726.5)"/><rect x="406" y="735" width="17" height="17" transform="rotate(0,414.5,743.5)"/><rect x="406" y="769" width="17" height="17" transform="rotate(0,414.5,777.5)"/><rect x="406" y="786" width="17" height="17" transform="rotate(0,414.5,794.5)"/><rect x="406" y="803" width="17" height="17" transform="rotate(0,414.5,811.5)"/><rect x="406" y="820" width="17" height="17" transform="rotate(0,414.5,828.5)"/><rect x="406" y="837" width="17" height="17" transform="rotate(0,414.5,845.5)"/><rect x="406" y="888" width="17" height="17" transform="rotate(0,414.5,896.5)"/><rect x="423" y="378" width="17" height="17" transform="rotate(0,431.5,386.5)"/><rect x="423" y="395" width="17" height="17" transform="rotate(0,431.5,403.5)"/><rect x="423" y="429" width="17" height="17" transform="rotate(0,431.5,437.5)"/><rect x="423" y="446" width="17" height="17" transform="rotate(0,431.5,454.5)"/><rect x="423" y="514" width="17" height="17" transform="rotate(0,431.5,522.5)"/><rect x="423" y="531" width="17" height="17" transform="rotate(0,431.5,539.5)"/><rect x="423" y="548" width="17" height="17" transform="rotate(0,431.5,556.5)"/><rect x="423" y="582" width="17" height="17" transform="rotate(0,431.5,590.5)"/><rect x="423" y="599" width="17" height="17" transform="rotate(0,431.5,607.5)"/><rect x="423" y="650" width="17" height="17" transform="rotate(0,431.5,658.5)"/><rect x="423" y="667" width="17" height="17" transform="rotate(0,431.5,675.5)"/><rect x="423" y="684" width="17" height="17" transform="rotate(0,431.5,692.5)"/><rect x="423" y="701" width="17" height="17" transform="rotate(0,431.5,709.5)"/><rect x="423" y="718" width="17" height="17" transform="rotate(0,431.5,726.5)"/><rect x="423" y="786" width="17" height="17" transform="rotate(0,431.5,794.5)"/><rect x="423" y="871" width="17" height="17" transform="rotate(0,431.5,879.5)"/><rect x="423" y="922" width="17" height="17" transform="rotate(0,431.5,930.5)"/><rect x="423" y="939" width="17" height="17" transform="rotate(0,431.5,947.5)"/><rect x="423" y="956" width="17" height="17" transform="rotate(0,431.5,964.5)"/><rect x="440" y="344" width="17" height="17" transform="rotate(0,448.5,352.5)"/><rect x="440" y="361" width="17" height="17" transform="rotate(0,448.5,369.5)"/><rect x="440" y="378" width="17" height="17" transform="rotate(0,448.5,386.5)"/><rect x="440" y="429" width="17" height="17" transform="rotate(0,448.5,437.5)"/><rect x="440" y="463" width="17" height="17" transform="rotate(0,448.5,471.5)"/><rect x="440" y="565" width="17" height="17" transform="rotate(0,448.5,573.5)"/><rect x="440" y="599" width="17" height="17" transform="rotate(0,448.5,607.5)"/><rect x="440" y="616" width="17" height="17" transform="rotate(0,448.5,624.5)"/><rect x="440" y="650" width="17" height="17" transform="rotate(0,448.5,658.5)"/><rect x="440" y="701" width="17" height="17" transform="rotate(0,448.5,709.5)"/><rect x="440" y="735" width="17" height="17" transform="rotate(0,448.5,743.5)"/><rect x="440" y="769" width="17" height="17" transform="rotate(0,448.5,777.5)"/><rect x="440" y="786" width="17" height="17" transform="rotate(0,448.5,794.5)"/><rect x="440" y="837" width="17" height="17" transform="rotate(0,448.5,845.5)"/><rect x="440" y="854" width="17" height="17" transform="rotate(0,448.5,862.5)"/><rect x="440" y="888" width="17" height="17" transform="rotate(0,448.5,896.5)"/><rect x="440" y="905" width="17" height="17" transform="rotate(0,448.5,913.5)"/><rect x="457" y="344" width="17" height="17" transform="rotate(0,465.5,352.5)"/><rect x="457" y="395" width="17" height="17" transform="rotate(0,465.5,403.5)"/><rect x="457" y="412" width="17" height="17" transform="rotate(0,465.5,420.5)"/><rect x="457" y="429" width="17" height="17" transform="rotate(0,465.5,437.5)"/><rect x="457" y="446" width="17" height="17" transform="rotate(0,465.5,454.5)"/><rect x="457" y="497" width="17" height="17" transform="rotate(0,465.5,505.5)"/><rect x="457" y="531" width="17" height="17" transform="rotate(0,465.5,539.5)"/><rect x="457" y="616" width="17" height="17" transform="rotate(0,465.5,624.5)"/><rect x="457" y="633" width="17" height="17" transform="rotate(0,465.5,641.5)"/><rect x="457" y="667" width="17" height="17" transform="rotate(0,465.5,675.5)"/><rect x="457" y="701" width="17" height="17" transform="rotate(0,465.5,709.5)"/><rect x="457" y="752" width="17" height="17" transform="rotate(0,465.5,760.5)"/><rect x="457" y="769" width="17" height="17" transform="rotate(0,465.5,777.5)"/><rect x="457" y="786" width="17" height="17" transform="rotate(0,465.5,794.5)"/><rect x="457" y="803" width="17" height="17" transform="rotate(0,465.5,811.5)"/><rect x="457" y="837" width="17" height="17" transform="rotate(0,465.5,845.5)"/><rect x="457" y="888" width="17" height="17" transform="rotate(0,465.5,896.5)"/><rect x="457" y="956" width="17" height="17" transform="rotate(0,465.5,964.5)"/><rect x="474" y="412" width="17" height="17" transform="rotate(0,482.5,420.5)"/><rect x="474" y="429" width="17" height="17" transform="rotate(0,482.5,437.5)"/><rect x="474" y="497" width="17" height="17" transform="rotate(0,482.5,505.5)"/><rect x="474" y="565" width="17" height="17" transform="rotate(0,482.5,573.5)"/><rect x="474" y="599" width="17" height="17" transform="rotate(0,482.5,607.5)"/><rect x="474" y="616" width="17" height="17" transform="rotate(0,482.5,624.5)"/><rect x="474" y="667" width="17" height="17" transform="rotate(0,482.5,675.5)"/><rect x="474" y="718" width="17" height="17" transform="rotate(0,482.5,726.5)"/><rect x="474" y="769" width="17" height="17" transform="rotate(0,482.5,777.5)"/><rect x="474" y="786" width="17" height="17" transform="rotate(0,482.5,794.5)"/><rect x="474" y="803" width="17" height="17" transform="rotate(0,482.5,811.5)"/><rect x="474" y="837" width="17" height="17" transform="rotate(0,482.5,845.5)"/><rect x="474" y="871" width="17" height="17" transform="rotate(0,482.5,879.5)"/><rect x="474" y="905" width="17" height="17" transform="rotate(0,482.5,913.5)"/><rect x="474" y="922" width="17" height="17" transform="rotate(0,482.5,930.5)"/><rect x="491" y="344" width="17" height="17" transform="rotate(0,499.5,352.5)"/><rect x="491" y="361" width="17" height="17" transform="rotate(0,499.5,369.5)"/><rect x="491" y="412" width="17" height="17" transform="rotate(0,499.5,420.5)"/><rect x="491" y="446" width="17" height="17" transform="rotate(0,499.5,454.5)"/><rect x="491" y="480" width="17" height="17" transform="rotate(0,499.5,488.5)"/><rect x="491" y="514" width="17" height="17" transform="rotate(0,499.5,522.5)"/><rect x="491" y="531" width="17" height="17" transform="rotate(0,499.5,539.5)"/><rect x="491" y="565" width="17" height="17" transform="rotate(0,499.5,573.5)"/><rect x="491" y="616" width="17" height="17" transform="rotate(0,499.5,624.5)"/><rect x="491" y="633" width="17" height="17" transform="rotate(0,499.5,641.5)"/><rect x="491" y="650" width="17" height="17" transform="rotate(0,499.5,658.5)"/><rect x="491" y="667" width="17" height="17" transform="rotate(0,499.5,675.5)"/><rect x="491" y="684" width="17" height="17" transform="rotate(0,499.5,692.5)"/><rect x="491" y="701" width="17" height="17" transform="rotate(0,499.5,709.5)"/><rect x="491" y="752" width="17" height="17" transform="rotate(0,499.5,760.5)"/><rect x="491" y="837" width="17" height="17" transform="rotate(0,499.5,845.5)"/><rect x="491" y="871" width="17" height="17" transform="rotate(0,499.5,879.5)"/><rect x="491" y="905" width="17" height="17" transform="rotate(0,499.5,913.5)"/><rect x="508" y="344" width="17" height="17" transform="rotate(0,516.5,352.5)"/><rect x="508" y="361" width="17" height="17" transform="rotate(0,516.5,369.5)"/><rect x="508" y="395" width="17" height="17" transform="rotate(0,516.5,403.5)"/><rect x="508" y="412" width="17" height="17" transform="rotate(0,516.5,420.5)"/><rect x="508" y="514" width="17" height="17" transform="rotate(0,516.5,522.5)"/><rect x="508" y="531" width="17" height="17" transform="rotate(0,516.5,539.5)"/><rect x="508" y="599" width="17" height="17" transform="rotate(0,516.5,607.5)"/><rect x="508" y="633" width="17" height="17" transform="rotate(0,516.5,641.5)"/><rect x="508" y="667" width="17" height="17" transform="rotate(0,516.5,675.5)"/><rect x="508" y="735" width="17" height="17" transform="rotate(0,516.5,743.5)"/><rect x="508" y="752" width="17" height="17" transform="rotate(0,516.5,760.5)"/><rect x="508" y="769" width="17" height="17" transform="rotate(0,516.5,777.5)"/><rect x="508" y="786" width="17" height="17" transform="rotate(0,516.5,794.5)"/><rect x="508" y="888" width="17" height="17" transform="rotate(0,516.5,896.5)"/><rect x="508" y="905" width="17" height="17" transform="rotate(0,516.5,913.5)"/><rect x="508" y="939" width="17" height="17" transform="rotate(0,516.5,947.5)"/><rect x="508" y="956" width="17" height="17" transform="rotate(0,516.5,964.5)"/><rect x="525" y="412" width="17" height="17" transform="rotate(0,533.5,420.5)"/><rect x="525" y="446" width="17" height="17" transform="rotate(0,533.5,454.5)"/><rect x="525" y="463" width="17" height="17" transform="rotate(0,533.5,471.5)"/><rect x="525" y="480" width="17" height="17" transform="rotate(0,533.5,488.5)"/><rect x="525" y="531" width="17" height="17" transform="rotate(0,533.5,539.5)"/><rect x="525" y="548" width="17" height="17" transform="rotate(0,533.5,556.5)"/><rect x="525" y="565" width="17" height="17" transform="rotate(0,533.5,573.5)"/><rect x="525" y="616" width="17" height="17" transform="rotate(0,533.5,624.5)"/><rect x="525" y="633" width="17" height="17" transform="rotate(0,533.5,641.5)"/><rect x="525" y="667" width="17" height="17" transform="rotate(0,533.5,675.5)"/><rect x="525" y="718" width="17" height="17" transform="rotate(0,533.5,726.5)"/><rect x="525" y="735" width="17" height="17" transform="rotate(0,533.5,743.5)"/><rect x="525" y="786" width="17" height="17" transform="rotate(0,533.5,794.5)"/><rect x="525" y="820" width="17" height="17" transform="rotate(0,533.5,828.5)"/><rect x="525" y="837" width="17" height="17" transform="rotate(0,533.5,845.5)"/><rect x="525" y="854" width="17" height="17" transform="rotate(0,533.5,862.5)"/><rect x="525" y="871" width="17" height="17" transform="rotate(0,533.5,879.5)"/><rect x="525" y="905" width="17" height="17" transform="rotate(0,533.5,913.5)"/><rect x="525" y="922" width="17" height="17" transform="rotate(0,533.5,930.5)"/><rect x="525" y="956" width="17" height="17" transform="rotate(0,533.5,964.5)"/><rect x="542" y="344" width="17" height="17" transform="rotate(0,550.5,352.5)"/><rect x="542" y="378" width="17" height="17" transform="rotate(0,550.5,386.5)"/><rect x="542" y="480" width="17" height="17" transform="rotate(0,550.5,488.5)"/><rect x="542" y="599" width="17" height="17" transform="rotate(0,550.5,607.5)"/><rect x="542" y="616" width="17" height="17" transform="rotate(0,550.5,624.5)"/><rect x="542" y="650" width="17" height="17" transform="rotate(0,550.5,658.5)"/><rect x="542" y="684" width="17" height="17" transform="rotate(0,550.5,692.5)"/><rect x="542" y="701" width="17" height="17" transform="rotate(0,550.5,709.5)"/><rect x="542" y="735" width="17" height="17" transform="rotate(0,550.5,743.5)"/><rect x="542" y="803" width="17" height="17" transform="rotate(0,550.5,811.5)"/><rect x="542" y="905" width="17" height="17" transform="rotate(0,550.5,913.5)"/><rect x="542" y="922" width="17" height="17" transform="rotate(0,550.5,930.5)"/><rect x="542" y="956" width="17" height="17" transform="rotate(0,550.5,964.5)"/><rect x="559" y="344" width="17" height="17" transform="rotate(0,567.5,352.5)"/><rect x="559" y="429" width="17" height="17" transform="rotate(0,567.5,437.5)"/><rect x="559" y="446" width="17" height="17" transform="rotate(0,567.5,454.5)"/><rect x="559" y="480" width="17" height="17" transform="rotate(0,567.5,488.5)"/><rect x="559" y="497" width="17" height="17" transform="rotate(0,567.5,505.5)"/><rect x="559" y="548" width="17" height="17" transform="rotate(0,567.5,556.5)"/><rect x="559" y="565" width="17" height="17" transform="rotate(0,567.5,573.5)"/><rect x="559" y="599" width="17" height="17" transform="rotate(0,567.5,607.5)"/><rect x="559" y="633" width="17" height="17" transform="rotate(0,567.5,641.5)"/><rect x="559" y="684" width="17" height="17" transform="rotate(0,567.5,692.5)"/><rect x="559" y="701" width="17" height="17" transform="rotate(0,567.5,709.5)"/><rect x="559" y="735" width="17" height="17" transform="rotate(0,567.5,743.5)"/><rect x="559" y="752" width="17" height="17" transform="rotate(0,567.5,760.5)"/><rect x="559" y="786" width="17" height="17" transform="rotate(0,567.5,794.5)"/><rect x="559" y="837" width="17" height="17" transform="rotate(0,567.5,845.5)"/><rect x="559" y="854" width="17" height="17" transform="rotate(0,567.5,862.5)"/><rect x="559" y="888" width="17" height="17" transform="rotate(0,567.5,896.5)"/><rect x="559" y="905" width="17" height="17" transform="rotate(0,567.5,913.5)"/><rect x="559" y="922" width="17" height="17" transform="rotate(0,567.5,930.5)"/><rect x="576" y="344" width="17" height="17" transform="rotate(0,584.5,352.5)"/><rect x="576" y="361" width="17" height="17" transform="rotate(0,584.5,369.5)"/><rect x="576" y="412" width="17" height="17" transform="rotate(0,584.5,420.5)"/><rect x="576" y="429" width="17" height="17" transform="rotate(0,584.5,437.5)"/><rect x="576" y="463" width="17" height="17" transform="rotate(0,584.5,471.5)"/><rect x="576" y="565" width="17" height="17" transform="rotate(0,584.5,573.5)"/><rect x="576" y="582" width="17" height="17" transform="rotate(0,584.5,590.5)"/><rect x="576" y="667" width="17" height="17" transform="rotate(0,584.5,675.5)"/><rect x="576" y="684" width="17" height="17" transform="rotate(0,584.5,692.5)"/><rect x="576" y="718" width="17" height="17" transform="rotate(0,584.5,726.5)"/><rect x="576" y="752" width="17" height="17" transform="rotate(0,584.5,760.5)"/><rect x="576" y="769" width="17" height="17" transform="rotate(0,584.5,777.5)"/><rect x="576" y="820" width="17" height="17" transform="rotate(0,584.5,828.5)"/><rect x="576" y="837" width="17" height="17" transform="rotate(0,584.5,845.5)"/><rect x="576" y="956" width="17" height="17" transform="rotate(0,584.5,964.5)"/><rect x="593" y="344" width="17" height="17" transform="rotate(0,601.5,352.5)"/><rect x="593" y="361" width="17" height="17" transform="rotate(0,601.5,369.5)"/><rect x="593" y="378" width="17" height="17" transform="rotate(0,601.5,386.5)"/><rect x="593" y="395" width="17" height="17" transform="rotate(0,601.5,403.5)"/><rect x="593" y="412" width="17" height="17" transform="rotate(0,601.5,420.5)"/><rect x="593" y="446" width="17" height="17" transform="rotate(0,601.5,454.5)"/><rect x="593" y="463" width="17" height="17" transform="rotate(0,601.5,471.5)"/><rect x="593" y="497" width="17" height="17" transform="rotate(0,601.5,505.5)"/><rect x="593" y="514" width="17" height="17" transform="rotate(0,601.5,522.5)"/><rect x="593" y="531" width="17" height="17" transform="rotate(0,601.5,539.5)"/><rect x="593" y="582" width="17" height="17" transform="rotate(0,601.5,590.5)"/><rect x="593" y="599" width="17" height="17" transform="rotate(0,601.5,607.5)"/><rect x="593" y="616" width="17" height="17" transform="rotate(0,601.5,624.5)"/><rect x="593" y="650" width="17" height="17" transform="rotate(0,601.5,658.5)"/><rect x="593" y="684" width="17" height="17" transform="rotate(0,601.5,692.5)"/><rect x="593" y="718" width="17" height="17" transform="rotate(0,601.5,726.5)"/><rect x="593" y="735" width="17" height="17" transform="rotate(0,601.5,743.5)"/><rect x="593" y="752" width="17" height="17" transform="rotate(0,601.5,760.5)"/><rect x="593" y="786" width="17" height="17" transform="rotate(0,601.5,794.5)"/><rect x="593" y="837" width="17" height="17" transform="rotate(0,601.5,845.5)"/><rect x="593" y="854" width="17" height="17" transform="rotate(0,601.5,862.5)"/><rect x="593" y="905" width="17" height="17" transform="rotate(0,601.5,913.5)"/><rect x="593" y="922" width="17" height="17" transform="rotate(0,601.5,930.5)"/><rect x="593" y="939" width="17" height="17" transform="rotate(0,601.5,947.5)"/><rect x="610" y="412" width="17" height="17" transform="rotate(0,618.5,420.5)"/><rect x="610" y="463" width="17" height="17" transform="rotate(0,618.5,471.5)"/><rect x="610" y="497" width="17" height="17" transform="rotate(0,618.5,505.5)"/><rect x="610" y="531" width="17" height="17" transform="rotate(0,618.5,539.5)"/><rect x="610" y="565" width="17" height="17" transform="rotate(0,618.5,573.5)"/><rect x="610" y="599" width="17" height="17" transform="rotate(0,618.5,607.5)"/><rect x="610" y="633" width="17" height="17" transform="rotate(0,618.5,641.5)"/><rect x="610" y="667" width="17" height="17" transform="rotate(0,618.5,675.5)"/><rect x="610" y="684" width="17" height="17" transform="rotate(0,618.5,692.5)"/><rect x="610" y="701" width="17" height="17" transform="rotate(0,618.5,709.5)"/><rect x="610" y="735" width="17" height="17" transform="rotate(0,618.5,743.5)"/><rect x="610" y="786" width="17" height="17" transform="rotate(0,618.5,794.5)"/><rect x="610" y="837" width="17" height="17" transform="rotate(0,618.5,845.5)"/><rect x="610" y="854" width="17" height="17" transform="rotate(0,618.5,862.5)"/><rect x="610" y="871" width="17" height="17" transform="rotate(0,618.5,879.5)"/><rect x="610" y="888" width="17" height="17" transform="rotate(0,618.5,896.5)"/><rect x="610" y="905" width="17" height="17" transform="rotate(0,618.5,913.5)"/><rect x="627" y="361" width="17" height="17" transform="rotate(0,635.5,369.5)"/><rect x="627" y="395" width="17" height="17" transform="rotate(0,635.5,403.5)"/><rect x="627" y="429" width="17" height="17" transform="rotate(0,635.5,437.5)"/><rect x="627" y="446" width="17" height="17" transform="rotate(0,635.5,454.5)"/><rect x="627" y="480" width="17" height="17" transform="rotate(0,635.5,488.5)"/><rect x="627" y="514" width="17" height="17" transform="rotate(0,635.5,522.5)"/><rect x="627" y="548" width="17" height="17" transform="rotate(0,635.5,556.5)"/><rect x="627" y="565" width="17" height="17" transform="rotate(0,635.5,573.5)"/><rect x="627" y="582" width="17" height="17" transform="rotate(0,635.5,590.5)"/><rect x="627" y="599" width="17" height="17" transform="rotate(0,635.5,607.5)"/><rect x="627" y="633" width="17" height="17" transform="rotate(0,635.5,641.5)"/><rect x="627" y="650" width="17" height="17" transform="rotate(0,635.5,658.5)"/><rect x="627" y="667" width="17" height="17" transform="rotate(0,635.5,675.5)"/><rect x="627" y="820" width="17" height="17" transform="rotate(0,635.5,828.5)"/><rect x="627" y="956" width="17" height="17" transform="rotate(0,635.5,964.5)"/><rect x="644" y="344" width="17" height="17" transform="rotate(0,652.5,352.5)"/><rect x="644" y="429" width="17" height="17" transform="rotate(0,652.5,437.5)"/><rect x="644" y="463" width="17" height="17" transform="rotate(0,652.5,471.5)"/><rect x="644" y="480" width="17" height="17" transform="rotate(0,652.5,488.5)"/><rect x="644" y="514" width="17" height="17" transform="rotate(0,652.5,522.5)"/><rect x="644" y="531" width="17" height="17" transform="rotate(0,652.5,539.5)"/><rect x="644" y="582" width="17" height="17" transform="rotate(0,652.5,590.5)"/><rect x="644" y="616" width="17" height="17" transform="rotate(0,652.5,624.5)"/><rect x="644" y="633" width="17" height="17" transform="rotate(0,652.5,641.5)"/><rect x="644" y="650" width="17" height="17" transform="rotate(0,652.5,658.5)"/><rect x="644" y="684" width="17" height="17" transform="rotate(0,652.5,692.5)"/><rect x="644" y="701" width="17" height="17" transform="rotate(0,652.5,709.5)"/><rect x="644" y="718" width="17" height="17" transform="rotate(0,652.5,726.5)"/><rect x="644" y="735" width="17" height="17" transform="rotate(0,652.5,743.5)"/><rect x="644" y="752" width="17" height="17" transform="rotate(0,652.5,760.5)"/><rect x="644" y="803" width="17" height="17" transform="rotate(0,652.5,811.5)"/><rect x="644" y="854" width="17" height="17" transform="rotate(0,652.5,862.5)"/><rect x="644" y="871" width="17" height="17" transform="rotate(0,652.5,879.5)"/><rect x="644" y="888" width="17" height="17" transform="rotate(0,652.5,896.5)"/><rect x="644" y="905" width="17" height="17" transform="rotate(0,652.5,913.5)"/><rect x="644" y="939" width="17" height="17" transform="rotate(0,652.5,947.5)"/><rect x="644" y="956" width="17" height="17" transform="rotate(0,652.5,964.5)"/><rect x="661" y="412" width="17" height="17" transform="rotate(0,669.5,420.5)"/><rect x="661" y="446" width="17" height="17" transform="rotate(0,669.5,454.5)"/><rect x="661" y="463" width="17" height="17" transform="rotate(0,669.5,471.5)"/><rect x="661" y="480" width="17" height="17" transform="rotate(0,669.5,488.5)"/><rect x="661" y="548" width="17" height="17" transform="rotate(0,669.5,556.5)"/><rect x="661" y="565" width="17" height="17" transform="rotate(0,669.5,573.5)"/><rect x="661" y="582" width="17" height="17" transform="rotate(0,669.5,590.5)"/><rect x="661" y="599" width="17" height="17" transform="rotate(0,669.5,607.5)"/><rect x="661" y="633" width="17" height="17" transform="rotate(0,669.5,641.5)"/><rect x="661" y="650" width="17" height="17" transform="rotate(0,669.5,658.5)"/><rect x="661" y="718" width="17" height="17" transform="rotate(0,669.5,726.5)"/><rect x="661" y="735" width="17" height="17" transform="rotate(0,669.5,743.5)"/><rect x="661" y="752" width="17" height="17" transform="rotate(0,669.5,760.5)"/><rect x="661" y="769" width="17" height="17" transform="rotate(0,669.5,777.5)"/><rect x="661" y="786" width="17" height="17" transform="rotate(0,669.5,794.5)"/><rect x="661" y="803" width="17" height="17" transform="rotate(0,669.5,811.5)"/><rect x="661" y="820" width="17" height="17" transform="rotate(0,669.5,828.5)"/><rect x="661" y="837" width="17" height="17" transform="rotate(0,669.5,845.5)"/><rect x="661" y="854" width="17" height="17" transform="rotate(0,669.5,862.5)"/><rect x="661" y="871" width="17" height="17" transform="rotate(0,669.5,879.5)"/><rect x="661" y="888" width="17" height="17" transform="rotate(0,669.5,896.5)"/><rect x="661" y="922" width="17" height="17" transform="rotate(0,669.5,930.5)"/><rect x="678" y="480" width="17" height="17" transform="rotate(0,686.5,488.5)"/><rect x="678" y="497" width="17" height="17" transform="rotate(0,686.5,505.5)"/><rect x="678" y="531" width="17" height="17" transform="rotate(0,686.5,539.5)"/><rect x="678" y="582" width="17" height="17" transform="rotate(0,686.5,590.5)"/><rect x="678" y="616" width="17" height="17" transform="rotate(0,686.5,624.5)"/><rect x="678" y="667" width="17" height="17" transform="rotate(0,686.5,675.5)"/><rect x="678" y="684" width="17" height="17" transform="rotate(0,686.5,692.5)"/><rect x="678" y="718" width="17" height="17" transform="rotate(0,686.5,726.5)"/><rect x="678" y="752" width="17" height="17" transform="rotate(0,686.5,760.5)"/><rect x="678" y="769" width="17" height="17" transform="rotate(0,686.5,777.5)"/><rect x="678" y="803" width="17" height="17" transform="rotate(0,686.5,811.5)"/><rect x="678" y="820" width="17" height="17" transform="rotate(0,686.5,828.5)"/><rect x="678" y="888" width="17" height="17" transform="rotate(0,686.5,896.5)"/><rect x="678" y="922" width="17" height="17" transform="rotate(0,686.5,930.5)"/><rect x="678" y="939" width="17" height="17" transform="rotate(0,686.5,947.5)"/><rect x="678" y="956" width="17" height="17" transform="rotate(0,686.5,964.5)"/><rect x="695" y="497" width="17" height="17" transform="rotate(0,703.5,505.5)"/><rect x="695" y="514" width="17" height="17" transform="rotate(0,703.5,522.5)"/><rect x="695" y="548" width="17" height="17" transform="rotate(0,703.5,556.5)"/><rect x="695" y="582" width="17" height="17" transform="rotate(0,703.5,590.5)"/><rect x="695" y="599" width="17" height="17" transform="rotate(0,703.5,607.5)"/><rect x="695" y="650" width="17" height="17" transform="rotate(0,703.5,658.5)"/><rect x="695" y="684" width="17" height="17" transform="rotate(0,703.5,692.5)"/><rect x="695" y="701" width="17" height="17" transform="rotate(0,703.5,709.5)"/><rect x="695" y="752" width="17" height="17" transform="rotate(0,703.5,760.5)"/><rect x="695" y="786" width="17" height="17" transform="rotate(0,703.5,794.5)"/><rect x="695" y="820" width="17" height="17" transform="rotate(0,703.5,828.5)"/><rect x="695" y="854" width="17" height="17" transform="rotate(0,703.5,862.5)"/><rect x="695" y="888" width="17" height="17" transform="rotate(0,703.5,896.5)"/><rect x="695" y="905" width="17" height="17" transform="rotate(0,703.5,913.5)"/><rect x="695" y="939" width="17" height="17" transform="rotate(0,703.5,947.5)"/><rect x="695" y="956" width="17" height="17" transform="rotate(0,703.5,964.5)"/><rect x="712" y="480" width="17" height="17" transform="rotate(0,720.5,488.5)"/><rect x="712" y="514" width="17" height="17" transform="rotate(0,720.5,522.5)"/><rect x="712" y="548" width="17" height="17" transform="rotate(0,720.5,556.5)"/><rect x="712" y="582" width="17" height="17" transform="rotate(0,720.5,590.5)"/><rect x="712" y="599" width="17" height="17" transform="rotate(0,720.5,607.5)"/><rect x="712" y="633" width="17" height="17" transform="rotate(0,720.5,641.5)"/><rect x="712" y="684" width="17" height="17" transform="rotate(0,720.5,692.5)"/><rect x="712" y="735" width="17" height="17" transform="rotate(0,720.5,743.5)"/><rect x="712" y="820" width="17" height="17" transform="rotate(0,720.5,828.5)"/><rect x="712" y="888" width="17" height="17" transform="rotate(0,720.5,896.5)"/><rect x="712" y="939" width="17" height="17" transform="rotate(0,720.5,947.5)"/><rect x="729" y="497" width="17" height="17" transform="rotate(0,737.5,505.5)"/><rect x="729" y="514" width="17" height="17" transform="rotate(0,737.5,522.5)"/><rect x="729" y="531" width="17" height="17" transform="rotate(0,737.5,539.5)"/><rect x="729" y="548" width="17" height="17" transform="rotate(0,737.5,556.5)"/><rect x="729" y="650" width="17" height="17" transform="rotate(0,737.5,658.5)"/><rect x="729" y="667" width="17" height="17" transform="rotate(0,737.5,675.5)"/><rect x="729" y="718" width="17" height="17" transform="rotate(0,737.5,726.5)"/><rect x="729" y="735" width="17" height="17" transform="rotate(0,737.5,743.5)"/><rect x="729" y="820" width="17" height="17" transform="rotate(0,737.5,828.5)"/><rect x="729" y="837" width="17" height="17" transform="rotate(0,737.5,845.5)"/><rect x="729" y="854" width="17" height="17" transform="rotate(0,737.5,862.5)"/><rect x="729" y="871" width="17" height="17" transform="rotate(0,737.5,879.5)"/><rect x="729" y="888" width="17" height="17" transform="rotate(0,737.5,896.5)"/><rect x="729" y="922" width="17" height="17" transform="rotate(0,737.5,930.5)"/><rect x="729" y="956" width="17" height="17" transform="rotate(0,737.5,964.5)"/><rect x="746" y="480" width="17" height="17" transform="rotate(0,754.5,488.5)"/><rect x="746" y="497" width="17" height="17" transform="rotate(0,754.5,505.5)"/><rect x="746" y="514" width="17" height="17" transform="rotate(0,754.5,522.5)"/><rect x="746" y="531" width="17" height="17" transform="rotate(0,754.5,539.5)"/><rect x="746" y="548" width="17" height="17" transform="rotate(0,754.5,556.5)"/><rect x="746" y="582" width="17" height="17" transform="rotate(0,754.5,590.5)"/><rect x="746" y="599" width="17" height="17" transform="rotate(0,754.5,607.5)"/><rect x="746" y="616" width="17" height="17" transform="rotate(0,754.5,624.5)"/><rect x="746" y="633" width="17" height="17" transform="rotate(0,754.5,641.5)"/><rect x="746" y="650" width="17" height="17" transform="rotate(0,754.5,658.5)"/><rect x="746" y="684" width="17" height="17" transform="rotate(0,754.5,692.5)"/><rect x="746" y="701" width="17" height="17" transform="rotate(0,754.5,709.5)"/><rect x="746" y="752" width="17" height="17" transform="rotate(0,754.5,760.5)"/><rect x="746" y="854" width="17" height="17" transform="rotate(0,754.5,862.5)"/><rect x="746" y="905" width="17" height="17" transform="rotate(0,754.5,913.5)"/><rect x="746" y="922" width="17" height="17" transform="rotate(0,754.5,930.5)"/><rect x="763" y="480" width="17" height="17" transform="rotate(0,771.5,488.5)"/><rect x="763" y="514" width="17" height="17" transform="rotate(0,771.5,522.5)"/><rect x="763" y="565" width="17" height="17" transform="rotate(0,771.5,573.5)"/><rect x="763" y="582" width="17" height="17" transform="rotate(0,771.5,590.5)"/><rect x="763" y="599" width="17" height="17" transform="rotate(0,771.5,607.5)"/><rect x="763" y="633" width="17" height="17" transform="rotate(0,771.5,641.5)"/><rect x="763" y="667" width="17" height="17" transform="rotate(0,771.5,675.5)"/><rect x="763" y="684" width="17" height="17" transform="rotate(0,771.5,692.5)"/><rect x="763" y="701" width="17" height="17" transform="rotate(0,771.5,709.5)"/><rect x="763" y="752" width="17" height="17" transform="rotate(0,771.5,760.5)"/><rect x="763" y="769" width="17" height="17" transform="rotate(0,771.5,777.5)"/><rect x="763" y="786" width="17" height="17" transform="rotate(0,771.5,794.5)"/><rect x="763" y="820" width="17" height="17" transform="rotate(0,771.5,828.5)"/><rect x="763" y="837" width="17" height="17" transform="rotate(0,771.5,845.5)"/><rect x="763" y="871" width="17" height="17" transform="rotate(0,771.5,879.5)"/><rect x="763" y="939" width="17" height="17" transform="rotate(0,771.5,947.5)"/><rect x="780" y="480" width="17" height="17" transform="rotate(0,788.5,488.5)"/><rect x="780" y="497" width="17" height="17" transform="rotate(0,788.5,505.5)"/><rect x="780" y="531" width="17" height="17" transform="rotate(0,788.5,539.5)"/><rect x="780" y="548" width="17" height="17" transform="rotate(0,788.5,556.5)"/><rect x="780" y="582" width="17" height="17" transform="rotate(0,788.5,590.5)"/><rect x="780" y="650" width="17" height="17" transform="rotate(0,788.5,658.5)"/><rect x="780" y="684" width="17" height="17" transform="rotate(0,788.5,692.5)"/><rect x="780" y="735" width="17" height="17" transform="rotate(0,788.5,743.5)"/><rect x="780" y="786" width="17" height="17" transform="rotate(0,788.5,794.5)"/><rect x="780" y="803" width="17" height="17" transform="rotate(0,788.5,811.5)"/><rect x="780" y="820" width="17" height="17" transform="rotate(0,788.5,828.5)"/><rect x="780" y="837" width="17" height="17" transform="rotate(0,788.5,845.5)"/><rect x="780" y="871" width="17" height="17" transform="rotate(0,788.5,879.5)"/><rect x="780" y="888" width="17" height="17" transform="rotate(0,788.5,896.5)"/><rect x="780" y="922" width="17" height="17" transform="rotate(0,788.5,930.5)"/><rect x="780" y="956" width="17" height="17" transform="rotate(0,788.5,964.5)"/><rect x="797" y="497" width="17" height="17" transform="rotate(0,805.5,505.5)"/><rect x="797" y="514" width="17" height="17" transform="rotate(0,805.5,522.5)"/><rect x="797" y="531" width="17" height="17" transform="rotate(0,805.5,539.5)"/><rect x="797" y="565" width="17" height="17" transform="rotate(0,805.5,573.5)"/><rect x="797" y="582" width="17" height="17" transform="rotate(0,805.5,590.5)"/><rect x="797" y="599" width="17" height="17" transform="rotate(0,805.5,607.5)"/><rect x="797" y="633" width="17" height="17" transform="rotate(0,805.5,641.5)"/><rect x="797" y="650" width="17" height="17" transform="rotate(0,805.5,658.5)"/><rect x="797" y="667" width="17" height="17" transform="rotate(0,805.5,675.5)"/><rect x="797" y="701" width="17" height="17" transform="rotate(0,805.5,709.5)"/><rect x="797" y="769" width="17" height="17" transform="rotate(0,805.5,777.5)"/><rect x="797" y="820" width="17" height="17" transform="rotate(0,805.5,828.5)"/><rect x="797" y="854" width="17" height="17" transform="rotate(0,805.5,862.5)"/><rect x="797" y="888" width="17" height="17" transform="rotate(0,805.5,896.5)"/><rect x="797" y="905" width="17" height="17" transform="rotate(0,805.5,913.5)"/><rect x="797" y="956" width="17" height="17" transform="rotate(0,805.5,964.5)"/></clipPath><clipPath id="clip-path-corners-square-color-0-0"><rect x="185" y="344" width="17" height="17" transform="rotate(0,193.5,352.5)"/><rect x="185" y="361" width="17" height="17" transform="rotate(0,193.5,369.5)"/><rect x="185" y="378" width="17" height="17" transform="rotate(0,193.5,386.5)"/><rect x="185" y="395" width="17" height="17" transform="rotate(0,193.5,403.5)"/><rect x="185" y="412" width="17" height="17" transform="rotate(0,193.5,420.5)"/><rect x="185" y="429" width="17" height="17" transform="rotate(0,193.5,437.5)"/><rect x="185" y="446" width="17" height="17" transform="rotate(0,193.5,454.5)"/><rect x="202" y="344" width="17" height="17" transform="rotate(0,210.5,352.5)"/><rect x="202" y="446" width="17" height="17" transform="rotate(0,210.5,454.5)"/><rect x="219" y="344" width="17" height="17" transform="rotate(0,227.5,352.5)"/><rect x="219" y="446" width="17" height="17" transform="rotate(0,227.5,454.5)"/><rect x="236" y="344" width="17" height="17" transform="rotate(0,244.5,352.5)"/><rect x="236" y="446" width="17" height="17" transform="rotate(0,244.5,454.5)"/><rect x="253" y="344" width="17" height="17" transform="rotate(0,261.5,352.5)"/><rect x="253" y="446" width="17" height="17" transform="rotate(0,261.5,454.5)"/><rect x="270" y="344" width="17" height="17" transform="rotate(0,278.5,352.5)"/><rect x="270" y="446" width="17" height="17" transform="rotate(0,278.5,454.5)"/><rect x="287" y="344" width="17" height="17" transform="rotate(0,295.5,352.5)"/><rect x="287" y="361" width="17" height="17" transform="rotate(0,295.5,369.5)"/><rect x="287" y="378" width="17" height="17" transform="rotate(0,295.5,386.5)"/><rect x="287" y="395" width="17" height="17" transform="rotate(0,295.5,403.5)"/><rect x="287" y="412" width="17" height="17" transform="rotate(0,295.5,420.5)"/><rect x="287" y="429" width="17" height="17" transform="rotate(0,295.5,437.5)"/><rect x="287" y="446" width="17" height="17" transform="rotate(0,295.5,454.5)"/></clipPath><clipPath id="clip-path-corners-dot-color-0-0"><rect x="219" y="378" width="17" height="17" transform="rotate(0,227.5,386.5)"/><rect x="219" y="395" width="17" height="17" transform="rotate(0,227.5,403.5)"/><rect x="219" y="412" width="17" height="17" transform="rotate(0,227.5,420.5)"/><rect x="236" y="378" width="17" height="17" transform="rotate(0,244.5,386.5)"/><rect x="236" y="395" width="17" height="17" transform="rotate(0,244.5,403.5)"/><rect x="236" y="412" width="17" height="17" transform="rotate(0,244.5,420.5)"/><rect x="253" y="378" width="17" height="17" transform="rotate(0,261.5,386.5)"/><rect x="253" y="395" width="17" height="17" transform="rotate(0,261.5,403.5)"/><rect x="253" y="412" width="17" height="17" transform="rotate(0,261.5,420.5)"/></clipPath><clipPath id="clip-path-corners-square-color-1-0"><rect x="695" y="344" width="17" height="17" transform="rotate(0,703.5,352.5)"/><rect x="695" y="361" width="17" height="17" transform="rotate(0,703.5,369.5)"/><rect x="695" y="378" width="17" height="17" transform="rotate(0,703.5,386.5)"/><rect x="695" y="395" width="17" height="17" transform="rotate(0,703.5,403.5)"/><rect x="695" y="412" width="17" height="17" transform="rotate(0,703.5,420.5)"/><rect x="695" y="429" width="17" height="17" transform="rotate(0,703.5,437.5)"/><rect x="695" y="446" width="17" height="17" transform="rotate(0,703.5,454.5)"/><rect x="712" y="344" width="17" height="17" transform="rotate(0,720.5,352.5)"/><rect x="712" y="446" width="17" height="17" transform="rotate(0,720.5,454.5)"/><rect x="729" y="344" width="17" height="17" transform="rotate(0,737.5,352.5)"/><rect x="729" y="446" width="17" height="17" transform="rotate(0,737.5,454.5)"/><rect x="746" y="344" width="17" height="17" transform="rotate(0,754.5,352.5)"/><rect x="746" y="446" width="17" height="17" transform="rotate(0,754.5,454.5)"/><rect x="763" y="344" width="17" height="17" transform="rotate(0,771.5,352.5)"/><rect x="763" y="446" width="17" height="17" transform="rotate(0,771.5,454.5)"/><rect x="780" y="344" width="17" height="17" transform="rotate(0,788.5,352.5)"/><rect x="780" y="446" width="17" height="17" transform="rotate(0,788.5,454.5)"/><rect x="797" y="344" width="17" height="17" transform="rotate(0,805.5,352.5)"/><rect x="797" y="361" width="17" height="17" transform="rotate(0,805.5,369.5)"/><rect x="797" y="378" width="17" height="17" transform="rotate(0,805.5,386.5)"/><rect x="797" y="395" width="17" height="17" transform="rotate(0,805.5,403.5)"/><rect x="797" y="412" width="17" height="17" transform="rotate(0,805.5,420.5)"/><rect x="797" y="429" width="17" height="17" transform="rotate(0,805.5,437.5)"/><rect x="797" y="446" width="17" height="17" transform="rotate(0,805.5,454.5)"/></clipPath><clipPath id="clip-path-corners-dot-color-1-0"><rect x="729" y="378" width="17" height="17" transform="rotate(0,737.5,386.5)"/><rect x="729" y="395" width="17" height="17" transform="rotate(0,737.5,403.5)"/><rect x="729" y="412" width="17" height="17" transform="rotate(0,737.5,420.5)"/><rect x="746" y="378" width="17" height="17" transform="rotate(0,754.5,386.5)"/><rect x="746" y="395" width="17" height="17" transform="rotate(0,754.5,403.5)"/><rect x="746" y="412" width="17" height="17" transform="rotate(0,754.5,420.5)"/><rect x="763" y="378" width="17" height="17" transform="rotate(0,771.5,386.5)"/><rect x="763" y="395" width="17" height="17" transform="rotate(0,771.5,403.5)"/><rect x="763" y="412" width="17" height="17" transform="rotate(0,771.5,420.5)"/></clipPath><clipPath id="clip-path-corners-square-color-0-1"><rect x="185" y="854" width="17" height="17" transform="rotate(0,193.5,862.5)"/><rect x="185" y="871" width="17" height="17" transform="rotate(0,193.5,879.5)"/><rect x="185" y="888" width="17" height="17" transform="rotate(0,193.5,896.5)"/><rect x="185" y="905" width="17" height="17" transform="rotate(0,193.5,913.5)"/><rect x="185" y="922" width="17" height="17" transform="rotate(0,193.5,930.5)"/><rect x="185" y="939" width="17" height="17" transform="rotate(0,193.5,947.5)"/><rect x="185" y="956" width="17" height="17" transform="rotate(0,193.5,964.5)"/><rect x="202" y="854" width="17" height="17" transform="rotate(0,210.5,862.5)"/><rect x="202" y="956" width="17" height="17" transform="rotate(0,210.5,964.5)"/><rect x="219" y="854" width="17" height="17" transform="rotate(0,227.5,862.5)"/><rect x="219" y="956" width="17" height="17" transform="rotate(0,227.5,964.5)"/><rect x="236" y="854" width="17" height="17" transform="rotate(0,244.5,862.5)"/><rect x="236" y="956" width="17" height="17" transform="rotate(0,244.5,964.5)"/><rect x="253" y="854" width="17" height="17" transform="rotate(0,261.5,862.5)"/><rect x="253" y="956" width="17" height="17" transform="rotate(0,261.5,964.5)"/><rect x="270" y="854" width="17" height="17" transform="rotate(0,278.5,862.5)"/><rect x="270" y="956" width="17" height="17" transform="rotate(0,278.5,964.5)"/><rect x="287" y="854" width="17" height="17" transform="rotate(0,295.5,862.5)"/><rect x="287" y="871" width="17" height="17" transform="rotate(0,295.5,879.5)"/><rect x="287" y="888" width="17" height="17" transform="rotate(0,295.5,896.5)"/><rect x="287" y="905" width="17" height="17" transform="rotate(0,295.5,913.5)"/><rect x="287" y="922" width="17" height="17" transform="rotate(0,295.5,930.5)"/><rect x="287" y="939" width="17" height="17" transform="rotate(0,295.5,947.5)"/><rect x="287" y="956" width="17" height="17" transform="rotate(0,295.5,964.5)"/></clipPath><clipPath id="clip-path-corners-dot-color-0-1"><rect x="219" y="888" width="17" height="17" transform="rotate(0,227.5,896.5)"/><rect x="219" y="905" width="17" height="17" transform="rotate(0,227.5,913.5)"/><rect x="219" y="922" width="17" height="17" transform="rotate(0,227.5,930.5)"/><rect x="236" y="888" width="17" height="17" transform="rotate(0,244.5,896.5)"/><rect x="236" y="905" width="17" height="17" transform="rotate(0,244.5,913.5)"/><rect x="236" y="922" width="17" height="17" transform="rotate(0,244.5,930.5)"/><rect x="253" y="888" width="17" height="17" transform="rotate(0,261.5,896.5)"/><rect x="253" y="905" width="17" height="17" transform="rotate(0,261.5,913.5)"/><rect x="253" y="922" width="17" height="17" transform="rotate(0,261.5,930.5)"/></clipPath></defs><defs/><path fill="#000000" d="M968.07,240.07c0-38.68-31.36-70.04-70.04-70.04H101.97c-38.68,0-70.04,31.36-70.04,70.04L0,1229.1 c0,38.68,31.36,70.04,70.04,70.04h859.91c38.68,0,70.04-31.36,70.04-70.04L968.07,240.07z M73.43,240.07 c0-15.74,12.8-28.54,28.54-28.54h796.05c15.74,0,28.54,12.8,28.54,28.54v824.59H73.43V240.07z"/>
			<polygon fill="#000000" points="352.81,0.85 273.07,79.83 273.07,247.82 352.81,247.82"/>
			<polygon fill="#000000" points="647.19,0.85 726.93,79.83 726.93,247.82 647.19,247.82"/>
			<rect fill="#595959" x="460.13" y="-106.46" transform="matrix(6.123234e-17 -1 1 6.123234e-17 459.272 540.728)" width="79.75" height="294.37"/>
			<text fill="#ffffff" font-size="100" x="50%" y="1197" dominant-baseline="middle" text-anchor="middle" font-family="sans-serif" font-weight="600">THB</text><rect x="138" y="296" height="725" width="724" clip-path="url('#clip-path-background-color')" fill="#ffffff"/><rect x="185" y="344" height="629" width="629" clip-path="url('#clip-path-dot-color')" fill="#000000"/><rect x="185" y="344" height="119" width="119" clip-path="url('#clip-path-corners-square-color-0-0')" fill="#000000"/><rect x="219" y="378" height="51" width="51" clip-path="url('#clip-path-corners-dot-color-0-0')" fill="#000000"/><rect x="695" y="344" height="119" width="119" clip-path="url('#clip-path-corners-square-color-1-0')" fill="#000000"/><rect x="729" y="378" height="51" width="51" clip-path="url('#clip-path-corners-dot-color-1-0')" fill="#000000"/><rect x="185" y="854" height="119" width="119" clip-path="url('#clip-path-corners-square-color-0-1')" fill="#000000"/><rect x="219" y="888" height="51" width="51" clip-path="url('#clip-path-corners-dot-color-0-1')" fill="#000000"/></svg>